<?xml version="1.0" encoding="iso-8859-1"?>
<!-- Generator: Adobe Illustrator 18.0.0, SVG Export Plug-In . SVG Version: 6.00 Build 0)  -->
<!DOCTYPE svg PUBLIC "-//W3C//DTD SVG 1.1//EN" "http://www.w3.org/Graphics/SVG/1.1/DTD/svg11.dtd">
<svg version="1.1" id="Layer_1" xmlns="http://www.w3.org/2000/svg" xmlns:xlink="http://www.w3.org/1999/xlink" x="0px" y="0px"
	 viewBox="0 0 342.424 79.636" style="enable-background:new 0 0 342.424 79.636;" xml:space="preserve">
<g>
	<path d="M16.307,16.932h21.856v6.901H23.64v15.529h12.653v6.901H23.64V68.12h-7.333V16.932z"/>
	<path d="M48.42,29.01c0-8.34,6.329-12.511,12.294-12.511c5.969,0,12.296,4.171,12.296,12.511v27.035
		c0,8.337-6.327,12.507-12.296,12.507c-5.966,0-12.294-4.17-12.294-12.507V29.01z M55.754,56.045c0,3.52,2.3,5.173,4.96,5.173
		c2.662,0,4.962-1.653,4.962-5.173V29.01c0-3.522-2.3-5.177-4.962-5.177c-2.66,0-4.96,1.655-4.96,5.177V56.045z"/>
	<path d="M84.801,16.932h11.792c8.699,0,12.94,5.104,12.94,15.027c0,5.892-1.652,10.207-6.326,12.796l7.907,23.365h-7.763
		L96.52,46.263h-4.384V68.12h-7.335V16.932z M92.136,39.794h4.169c5.104,0,5.895-2.877,5.895-7.981c0-5.176-0.863-7.98-6.254-7.98
		h-3.81V39.794z"/>
	<path d="M121.376,16.932h21.854v6.901h-14.525v15.026h12.655v6.903h-12.655v15.027h14.525v7.331h-21.854V16.932z"/>
	<path d="M169.546,68.12h-6.473l-10.422-51.188h7.765l5.823,35.732h0.143l5.897-35.732h7.763L169.546,68.12z"/>
	<path d="M190.997,16.932h21.857v6.901h-14.525v15.026h12.654v6.903h-12.654v15.027h14.525v7.331h-21.857V16.932z"/>
	<path d="M224.164,16.932h11.794c8.697,0,12.939,5.104,12.939,15.027c0,5.892-1.653,10.207-6.327,12.796l7.909,23.365h-7.766
		l-6.827-21.857H231.5V68.12h-7.335V16.932z M231.5,39.794h4.167c5.106,0,5.899-2.877,5.899-7.981c0-5.176-0.864-7.98-6.256-7.98
		H231.5V39.794z"/>
	<path d="M282.787,61.218l13.228-24.948c1.294-2.515,1.294-3.952,1.294-6.757c0-2.588,0-5.68-3.595-5.68
		c-2.156,0-3.596,1.295-3.596,3.666v4.171h-7.331v-4.027c0-6.111,4.889-11.145,11-11.145c7.62,0,10.856,6.041,10.856,12.87
		c0,4.962-0.144,6.256-2.445,10.64l-10.784,20.78h13.229v7.331h-21.857V61.218z"/>
	<path d="M321.059,24.697l-7.331,0.033v-7.819l7.331,0.02h7.335V68.12h-7.335V24.697z"/>
</g>
<g>
</g>
<g>
</g>
<g>
</g>
<g>
</g>
<g>
</g>
<g>
</g>
<g>
</g>
<g>
</g>
<g>
</g>
<g>
</g>
<g>
</g>
<g>
</g>
<g>
</g>
<g>
</g>
<g>
</g>
</svg>
