<?xml version="1.0" encoding="utf-8"?>
<!-- Generator: Adobe Illustrator 19.0.0, SVG Export Plug-In . SVG Version: 6.00 Build 0)  -->
<!DOCTYPE svg PUBLIC "-//W3C//DTD SVG 1.1//EN" "http://www.w3.org/Graphics/SVG/1.1/DTD/svg11.dtd">
<svg version="1.1" id="Layer_1" xmlns="http://www.w3.org/2000/svg" xmlns:xlink="http://www.w3.org/1999/xlink" x="0px" y="0px"
	 viewBox="0 0 350 40" style="enable-background:new 0 0 350 40;" xml:space="preserve">
<style type="text/css">
	.st0{fill:#0255A3;stroke:#0255A3;}
	.st1{fill:#EE3425;stroke:#EE3425;}
	.st2{fill:#0255A3;stroke:#0255A3;stroke-width:0.5;}
</style>
<g>
	<path class="st0" d="M27.1,12.9l-6.8,1.7c-0.2-0.8-0.7-1.4-1.4-1.9c-0.8-0.5-1.6-0.7-2.5-0.7c-1.7,0-2.6,0.6-2.6,1.8
		c0,0.4,0.1,0.7,0.4,1c0.2,0.3,0.9,0.6,2.1,1l4.2,1.5c1.1,0.4,2.1,1,3.1,1.7c0.9,0.8,1.6,1.6,2,2.5c0.4,0.9,0.6,1.9,0.6,2.9
		c0,2.7-1.1,4.9-3.2,6.6c-2.1,1.7-4.9,2.6-8.4,2.6c-3,0-5.6-0.6-7.8-1.8c-2.2-1.2-3.8-3.1-4.7-5.6l7.6-1.5c0.7,1.9,2.3,2.9,4.9,2.9
		c1.1,0,1.9-0.2,2.4-0.6c0.5-0.4,0.7-0.8,0.7-1.4c0-0.3-0.1-0.6-0.3-0.9c-0.2-0.2-0.4-0.4-0.6-0.5c-0.2-0.1-1.2-0.5-3-1.2
		c-2.4-0.9-4.1-1.6-5.1-2.1c-1-0.5-1.8-1.3-2.5-2.3c-0.7-1-1-2.2-1-3.6c0-2.4,0.9-4.5,2.7-6.1c1.8-1.7,4.5-2.5,8.2-2.5
		c2.8,0,5.2,0.6,7.2,1.8C25.2,9.3,26.5,10.9,27.1,12.9z"/>
	<path class="st0" d="M36.8,23.5l-1.6,9.7h-7.7l4.4-26.5h8.7c2.1,0,3.5,0.1,4.5,0.3c0.9,0.2,1.9,0.6,2.9,1.3c1,0.7,1.8,1.6,2.4,2.7
		c0.6,1.1,0.9,2.3,0.9,3.6c0,2.5-0.8,4.6-2.4,6.3c-1.6,1.7-3.9,2.6-6.9,2.6H36.8z M37.8,17.9h1.8c2.8,0,4.2-0.9,4.2-2.8
		c0-1.7-1.2-2.5-3.5-2.5h-1.6L37.8,17.9z"/>
	<path class="st0" d="M63.8,33.9c-3.1,0-5.8-1-8.1-3.1c-2.3-2-3.4-5-3.4-8.8c0-4.4,1.3-8.2,3.9-11.3c2.6-3.1,5.9-4.6,10.1-4.6
		c3.3,0,6,1.1,8.2,3.2s3.2,5,3.2,8.5c0,4.5-1.3,8.3-3.8,11.4C71.2,32.3,67.9,33.9,63.8,33.9z M63.9,27.7c1.4,0,2.4-0.6,3.1-1.7
		c0.7-1.2,1.3-2.9,1.7-5.1c0.4-2.2,0.6-3.7,0.6-4.5c0-1.4-0.3-2.4-0.9-3.1c-0.6-0.7-1.4-1-2.5-1c-2,0-3.3,1.4-4.1,4.1
		c-0.8,2.8-1.2,5.2-1.2,7.3C60.5,26.4,61.7,27.7,63.9,27.7z"/>
	<path class="st0" d="M98.3,22.1l2.8,11.1h-7.8L91,23.2h-3.1l-1.7,10.1h-7.5L83,6.8h11.5c3.1,0,5.5,0.7,7,2.1
		c1.5,1.4,2.3,3.2,2.3,5.6C103.8,18.2,102,20.8,98.3,22.1z M88.8,17.7h3c2.9,0,4.3-1,4.3-2.9c0-1.6-1.2-2.4-3.6-2.4h-2.8L88.8,17.7z
		"/>
	<path class="st0" d="M119.4,12.9L116,33.2h-7.7l3.4-20.4H106l1-6.1h19.2l-1,6.1H119.4z"/>
	<path class="st0" d="M148.7,12.9l-6.8,1.7c-0.2-0.8-0.7-1.4-1.4-1.9c-0.8-0.5-1.6-0.7-2.5-0.7c-1.7,0-2.6,0.6-2.6,1.8
		c0,0.4,0.1,0.7,0.4,1c0.2,0.3,0.9,0.6,2.1,1l4.2,1.5c1.1,0.4,2.1,1,3.1,1.7c0.9,0.8,1.6,1.6,2,2.5c0.4,0.9,0.6,1.9,0.6,2.9
		c0,2.7-1.1,4.9-3.2,6.6c-2.1,1.7-4.9,2.6-8.4,2.6c-3,0-5.6-0.6-7.8-1.8c-2.2-1.2-3.8-3.1-4.7-5.6l7.6-1.5c0.7,1.9,2.3,2.9,4.9,2.9
		c1.1,0,1.9-0.2,2.4-0.6c0.5-0.4,0.7-0.8,0.7-1.4c0-0.3-0.1-0.6-0.3-0.9c-0.2-0.2-0.4-0.4-0.6-0.5c-0.2-0.1-1.2-0.5-3-1.2
		c-2.4-0.9-4.1-1.6-5.1-2.1c-1-0.5-1.8-1.3-2.5-2.3c-0.7-1-1-2.2-1-3.6c0-2.4,0.9-4.5,2.7-6.1c1.8-1.7,4.5-2.5,8.2-2.5
		c2.8,0,5.2,0.6,7.2,1.8C146.8,9.3,148.1,10.9,148.7,12.9z"/>
	<path class="st1" d="M152.8,33.2l4.4-26.5h8.8c2.1,0,3.9,0.2,5.2,0.5c1.3,0.3,2.6,1,3.8,2c1.2,1,2.2,2.3,2.8,3.9
		c0.6,1.6,0.9,3.4,0.9,5.4c0,2.6-0.5,5-1.5,7c-1,2.1-2.2,3.7-3.8,5c-1.6,1.2-3.1,2-4.7,2.2c-1.5,0.3-3.6,0.4-6.4,0.4H152.8z
		 M161.7,27.3h1.8c1.9,0,3.2-0.3,4.1-0.8c0.9-0.5,1.6-1.5,2.3-3c0.6-1.4,1-3.2,1-5.2c0-3.9-1.5-5.9-4.4-5.9h-2.3L161.7,27.3z"/>
	<path class="st1" d="M192,6.8l-4.4,26.5h-7.5l4.4-26.5H192z"/>
	<path class="st1" d="M211.9,22.1l2.8,11.1h-7.8l-2.3-10.1h-3.1l-1.7,10.1h-7.5l4.4-26.5h11.5c3.1,0,5.5,0.7,7,2.1
		c1.5,1.4,2.3,3.2,2.3,5.6C217.4,18.2,215.5,20.8,211.9,22.1z M202.3,17.7h3c2.9,0,4.3-1,4.3-2.9c0-1.6-1.2-2.4-3.6-2.4h-2.8
		L202.3,17.7z"/>
	<path class="st1" d="M239.1,27.1l-1,6.1h-19.5l4.4-26.5h19l-1,5.7h-11.3l-0.7,4.2h9.6l-1,5.7H228l-0.8,4.7H239.1z"/>
	<path class="st1" d="M257.9,23l7.1,0.9c-0.8,2.9-2.2,5.3-4.2,7.1c-2,1.8-4.5,2.8-7.6,2.8c-3.3,0-6-1.1-7.9-3.4
		c-2-2.3-2.9-5.2-2.9-8.7c0-4.1,1.2-7.7,3.6-10.9c2.4-3.2,5.7-4.7,10-4.7c3.1,0,5.6,0.9,7.5,2.8c1.9,1.9,2.9,4.4,2.9,7.5l-7.4,0.5
		c0-1.6-0.3-2.8-0.8-3.6c-0.5-0.8-1.3-1.2-2.4-1.2c-2,0-3.3,1.5-4,4.4c-0.7,2.9-1.1,5.2-1.1,6.9c0,2.7,1,4.1,3.1,4.1
		c1,0,1.9-0.3,2.5-1C256.9,25.7,257.4,24.6,257.9,23z"/>
	<path class="st1" d="M281.3,12.9l-3.4,20.4h-7.7l3.4-20.4h-5.7l1-6.1h19.2l-1,6.1H281.3z"/>
	<path class="st2" d="M291.2,28.7l-0.7,4.5h-4.6l0.7-4.5H291.2z"/>
	<path class="st2" d="M303.7,26.7l4.5,0.6c-0.5,1.8-1.4,3.4-2.7,4.5c-1.3,1.2-2.9,1.8-4.9,1.8c-2.1,0-3.8-0.7-5.1-2.2
		c-1.3-1.4-1.9-3.3-1.9-5.6c0-2.6,0.8-4.9,2.3-6.9c1.5-2,3.7-3,6.4-3c2,0,3.6,0.6,4.8,1.8c1.2,1.2,1.8,2.8,1.9,4.8l-4.8,0.3
		c0-1-0.2-1.8-0.5-2.3c-0.3-0.5-0.8-0.8-1.6-0.8c-1.3,0-2.1,0.9-2.6,2.8c-0.5,1.9-0.7,3.3-0.7,4.4c0,1.7,0.7,2.6,2,2.6
		c0.7,0,1.2-0.2,1.6-0.7C303.1,28.4,303.4,27.7,303.7,26.7z"/>
	<path class="st2" d="M317.1,33.7c-2,0-3.7-0.7-5.2-2c-1.5-1.3-2.2-3.2-2.2-5.6c0-2.8,0.8-5.2,2.5-7.2c1.6-2,3.8-3,6.4-3
		c2.1,0,3.9,0.7,5.2,2.1c1.4,1.4,2,3.2,2,5.4c0,2.9-0.8,5.3-2.4,7.3C321.8,32.7,319.7,33.7,317.1,33.7z M317.1,29.7
		c0.9,0,1.5-0.4,2-1.1c0.5-0.7,0.8-1.8,1.1-3.3c0.3-1.4,0.4-2.4,0.4-2.9c0-0.9-0.2-1.5-0.6-2c-0.4-0.4-0.9-0.7-1.6-0.7
		c-1.3,0-2.2,0.9-2.7,2.6c-0.5,1.8-0.8,3.3-0.8,4.7C315,28.9,315.7,29.7,317.1,29.7z"/>
	<path class="st2" d="M348,16.3l-2.9,16.9h-4.8l1.5-9c0.2-0.9,0.4-1.9,0.6-2.9c0.2-0.8,0.3-1.4,0.4-1.9c-0.1,0.3-0.2,0.6-0.4,1.2
		c-0.4,1.1-0.8,2-1.1,2.8l-4.4,9.8H334l-1.2-9.8c-0.1-0.9-0.2-1.8-0.2-2.8c0-0.6-0.1-1-0.1-1.4c-0.2,2.3-0.5,4.4-0.8,6l-1.3,7.9
		h-3.8l2.8-16.9h6.8l0.9,7.5c0.1,0.6,0.1,1,0.2,1.3c0.1-0.4,0.3-0.8,0.5-1.3l3.3-7.5H348z"/>
</g>
</svg>
